# xmcd
#
# Track frame offsets:
#	150
#	12032
#	25415
#	40157
#	54047
#	68772
#	82495
#	92842
#	105272
#	115550
#	127187
#	141202
#	155492
#	165842
#	185970
#	208970
#	214805
#	222390
#	234925
#	246190
#	256142
#	268590
#	280045
#	286917
#	298357
#	311177
#	319720
#
# Disc length: 4473 seconds
#
# Revision: 1
# Processed by: cddbd v1.4PL0 Copyright (c) Steve Scherf et al.
# Submitted via: MusicWizard 6.0.2
#
DISCID=9411771b
DTITLE=Dean Martin - Everybody Loves Somebody   Vol. 3
DYEAR=1900
DGENRE=Vocal
TTITLE0=La Giostra (The Merry-Go-Round)
TTITLE1=Smile
TTITLE2=I'm Confessin' (That I Love You)
TTITLE3=Fools Rush In
TTITLE4=I'll Buy That Dream
TTITLE5=If You Were The Only Girl In The World
TTITLE6=Gimmea Little Kiss, Will Ya, Huh
TTITLE7=My Melancholy Baby
TTITLE8=Baby, Won't You Please Come Home
TTITLE9=I Don't Know Why (I Just Do)
TTITLE10=Blue Moon
TTITLE11=Everybody Love Somebody
TTITLE12=Hands Across The Table
TTITLE13=Style
TTITLE14=Mr. Booze
TTITLE15=Don't Be A Do-Badder
TTITLE16=Any Man Who Loves His Mother
TTITLE17=Everybody Loves Somebody
TTITLE18=Your Other Love
TTITLE19=We Open In Venice
TTITLE20=Bianca
TTITLE21=If This Isn't Love
TTITLE22=Fugue For Tinhors
TTITLE23=The Oldest Established (Permanent Floating Crap Game In New York)
TTITLE24=Guys And Dolls
TTITLE25=Guys And Dolls (Reprise)
TTITLE26=Peace On Earth/Silent Night
EXTD=
EXTT0=
EXTT1=
EXTT2=
EXTT3=
EXTT4=
EXTT5=
EXTT6=
EXTT7=
EXTT8=
EXTT9=
EXTT10=
EXTT11=
EXTT12=
EXTT13=
EXTT14=
EXTT15=
EXTT16=
EXTT17=
EXTT18=
EXTT19=
EXTT20=
EXTT21=
EXTT22=
EXTT23=
EXTT24=
EXTT25=
EXTT26=
PLAYORDER=
